<svg width="159" height="53" viewBox="0 0 6014 2007" fill="none" xmlns="http://www.w3.org/2000/svg">
<g clip-path="url(#clip0_317_19)">
<path d="M870.332 1276.97L1202.65 1842.36C1207.64 1850.85 1219.52 1851.03 1224.13 1842.7L2030.61 381.648C2035.28 373.18 2028.91 362.384 2019.24 362.393L354.833 363.834C345.339 363.842 339.758 374.296 344.731 382.757L677.662 949.18" stroke="#F4641E" stroke-width="306"/>
<path d="M0.234375 1788.6L1002.1 1199.73L976.341 1459.1L0.234375 1788.6Z" fill="#F4641E"/>
<path d="M2767.56 902.11C2760.3 902.11 2754.04 899.8 2748.76 895.18C2744.15 889.91 2741.84 883.64 2741.84 876.39V393.683H2571.71C2564.45 393.683 2558.19 391.375 2552.91 386.759C2548.3 381.484 2545.99 375.219 2545.99 367.965V235.419C2545.99 228.165 2548.3 222.23 2552.91 217.614C2558.19 212.338 2564.45 209.701 2571.71 209.701H3127.61C3134.86 209.701 3140.8 212.338 3145.41 217.614C3150.69 222.23 3153.33 228.165 3153.33 235.419V367.965C3153.33 375.219 3150.69 381.484 3145.41 386.759C3140.8 391.375 3134.86 393.683 3127.61 393.683H2957.47V876.39C2957.47 883.64 2954.84 889.91 2949.56 895.18C2944.94 899.8 2939.01 902.11 2931.76 902.11H2767.56Z" fill="#85118D"/>
<path d="M3512.73 912C3449.42 912 3394.36 902.11 3347.54 882.33C3301.38 862.54 3264.78 832.87 3237.74 793.3C3211.37 753.08 3197.19 703.29 3195.21 643.94C3194.55 616.24 3194.22 587.887 3194.22 558.872C3194.22 529.197 3194.55 499.852 3195.21 470.837C3197.19 412.147 3211.37 362.69 3237.74 322.464C3264.78 282.239 3301.71 251.905 3348.53 231.462C3395.35 210.36 3450.08 199.809 3512.73 199.809C3574.71 199.809 3629.12 210.36 3675.94 231.462C3722.76 251.905 3759.68 282.239 3786.72 322.464C3813.76 362.69 3827.93 412.147 3829.25 470.837C3830.57 499.852 3831.23 529.197 3831.23 558.872C3831.23 587.887 3830.57 616.24 3829.25 643.94C3827.28 703.29 3812.77 753.08 3785.73 793.3C3759.35 832.87 3722.76 862.54 3675.94 882.33C3629.78 902.11 3575.37 912 3512.73 912ZM3512.73 743.84C3540.42 743.84 3563.17 735.6 3580.98 719.11C3598.78 701.97 3608.01 674.93 3608.67 638C3609.99 609.65 3610.65 582.282 3610.65 555.905C3610.65 528.868 3609.99 501.501 3608.67 473.805C3608.01 449.406 3603.4 429.293 3594.83 413.466C3586.91 397.64 3575.7 386.1 3561.19 378.846C3547.35 371.592 3531.19 367.965 3512.73 367.965C3494.26 367.965 3477.78 371.592 3463.27 378.846C3448.76 386.1 3437.22 397.64 3428.65 413.466C3420.74 429.293 3416.45 449.406 3415.79 473.805C3415.13 501.501 3414.8 528.868 3414.8 555.905C3414.8 582.282 3415.13 609.65 3415.79 638C3417.11 674.93 3426.34 701.97 3443.49 719.11C3461.29 735.6 3484.37 743.84 3512.73 743.84Z" fill="#85118D"/>
<path d="M3938.62 902.11C3932.02 902.11 3926.09 899.8 3920.81 895.18C3915.54 890.57 3912.9 884.3 3912.9 876.39V235.419C3912.9 228.165 3915.54 222.23 3920.81 217.614C3926.09 212.338 3932.02 209.701 3938.62 209.701H4514.3C4521.55 209.701 4527.49 212.338 4532.11 217.614C4537.38 222.23 4540.02 228.165 4540.02 235.419V876.39C4540.02 883.64 4537.38 889.91 4532.11 895.18C4527.49 899.8 4521.55 902.11 4514.3 902.11H4353.07C4345.82 902.11 4339.55 899.8 4334.28 895.18C4329.66 889.91 4327.35 883.64 4327.35 876.39V397.64H4125.57V876.39C4125.57 883.64 4122.93 889.91 4117.65 895.18C4113.04 899.8 4107.1 902.11 4099.85 902.11H3938.62Z" fill="#85118D"/>
<path d="M4608.06 902.11C4602.13 902.11 4596.85 900.13 4592.23 896.17C4588.28 891.56 4586.3 886.28 4586.3 880.35C4586.3 877.71 4586.96 875.4 4588.28 873.42L4813.8 240.364C4815.78 233.111 4820.07 226.187 4826.66 219.592C4833.92 212.998 4843.48 209.701 4855.35 209.701H5036.36C5048.89 209.701 5058.45 212.998 5065.05 219.592C5071.64 226.187 5075.93 233.111 5077.91 240.364L5304.42 873.42C5305.08 875.4 5305.41 877.71 5305.41 880.35C5305.41 886.28 5303.1 891.56 5298.49 896.17C5294.53 900.13 5289.58 902.11 5283.65 902.11H5131.32C5120.11 902.11 5111.87 899.47 5106.59 894.2C5101.32 888.92 5097.69 883.97 5095.71 879.36L5065.05 796.27H4826.66L4796 879.36C4794.02 883.97 4790.39 888.92 4785.12 894.2C4780.5 899.47 4772.26 902.11 4760.39 902.11H4608.06ZM4872.16 629.1H5019.55L4945.36 406.542L4872.16 629.1Z" fill="#85118D"/>
<path d="M5376.98 902.11C5370.38 902.11 5364.45 899.8 5359.17 895.18C5353.9 889.91 5351.26 883.64 5351.26 876.39V235.419C5351.26 228.165 5353.9 222.23 5359.17 217.614C5364.45 212.338 5370.71 209.701 5377.97 209.701H5538.21C5545.46 209.701 5551.4 212.338 5556.01 217.614C5561.29 222.23 5563.93 228.165 5563.93 235.419V584.59L5808.25 230.473C5812.2 224.538 5817.15 219.592 5823.08 215.636C5829.02 211.679 5836.27 209.701 5844.84 209.701H5988.27C5995.52 209.701 6001.46 212.338 6006.08 217.614C6011.35 222.23 6013.99 228.165 6013.99 235.419V876.39C6013.99 883.64 6011.35 889.91 6006.08 895.18C6001.46 899.8 5995.52 902.11 5988.27 902.11H5827.04C5819.79 902.11 5813.52 899.8 5808.25 895.18C5803.63 889.91 5801.32 883.64 5801.32 876.39V546.013L5557 881.34C5553.7 886.61 5549.42 891.56 5544.14 896.17C5538.87 900.13 5530.95 902.11 5520.4 902.11H5376.98ZM5689.55 169.145C5646.68 169.145 5611.4 162.551 5583.71 149.362C5556.67 136.174 5536.56 118.369 5523.37 95.948C5510.84 72.868 5504.58 47.15 5504.58 18.794C5504.58 13.518 5505.9 9.232 5508.53 5.935C5511.83 1.978 5516.78 0 5523.37 0H5621.3C5627.23 0 5631.85 1.978 5635.14 5.935C5638.44 9.232 5640.09 13.518 5640.09 18.794C5640.09 27.367 5641.41 35.61 5644.05 43.523C5647.34 50.777 5652.29 56.712 5658.88 61.328C5666.14 65.284 5676.36 67.262 5689.55 67.262C5702.74 67.262 5712.63 65.284 5719.22 61.328C5726.48 56.712 5731.42 50.777 5734.06 43.523C5737.36 35.61 5739.01 27.367 5739.01 18.794C5739.01 13.518 5740.65 9.232 5743.95 5.935C5747.25 1.978 5751.86 0 5757.8 0H5855.72C5861.66 0 5866.28 1.978 5869.57 5.935C5872.87 9.232 5874.52 13.518 5874.52 18.794C5874.52 47.15 5867.92 72.868 5854.74 95.948C5842.21 118.369 5822.42 136.174 5795.39 149.362C5768.35 162.551 5733.07 169.145 5689.55 169.145Z" fill="#85118D"/>
<path d="M2571.98 1994.69C2563.78 1994.69 2556.4 1991.82 2549.84 1986.08C2543.28 1979.52 2540 1971.72 2540 1962.7V1165.3C2540 1156.28 2543.28 1148.89 2549.84 1143.15C2556.4 1136.59 2563.78 1133.31 2571.98 1133.31H2964.33C3038.95 1133.31 3100.04 1143.15 3147.6 1162.84C3195.15 1182.53 3230.41 1210.83 3253.37 1247.75C3276.33 1284.66 3287.81 1330.19 3287.81 1384.34C3287.81 1412.23 3282.07 1437.25 3270.59 1459.4C3259.93 1480.73 3246.81 1498.78 3231.23 1513.55C3215.65 1527.49 3200.89 1537.75 3186.95 1544.31C3218.93 1558.26 3246.81 1582.05 3270.59 1615.68C3294.37 1648.5 3306.26 1686.24 3306.26 1728.89C3306.26 1786.32 3293.14 1834.72 3266.9 1874.1C3241.48 1913.48 3204.17 1943.42 3154.98 1963.93C3106.6 1984.44 3047.15 1994.69 2976.63 1994.69H2571.98ZM2804.44 1808.88H2948.34C2976.22 1808.88 2996.72 1800.68 3009.84 1784.27C3022.96 1767.04 3029.52 1748.17 3029.52 1727.66C3029.52 1706.33 3022.55 1687.88 3008.61 1672.29C2994.67 1655.88 2974.58 1647.68 2948.34 1647.68H2804.44V1808.88ZM2804.44 1466.79H2936.04C2962.28 1466.79 2981.55 1459.4 2993.85 1444.64C3006.15 1429.87 3012.3 1412.64 3012.3 1392.95C3012.3 1373.26 3006.15 1356.04 2993.85 1341.27C2981.55 1326.5 2962.28 1319.12 2936.04 1319.12H2804.44V1466.79Z" fill="#85118D"/>
<path d="M3842.48 1994.69C3833.46 1994.69 3825.67 1991.82 3819.11 1986.08C3813.37 1979.52 3810.5 1971.72 3810.5 1962.7V1362.19H3598.95C3589.93 1362.19 3582.14 1359.32 3575.58 1353.57C3569.84 1347.01 3566.97 1339.22 3566.97 1330.19V1165.3C3566.97 1156.28 3569.84 1148.89 3575.58 1143.15C3582.14 1136.59 3589.93 1133.31 3598.95 1133.31H4290.18C4299.2 1133.31 4306.58 1136.59 4312.32 1143.15C4318.88 1148.89 4322.16 1156.28 4322.16 1165.3V1330.19C4322.16 1339.22 4318.88 1347.01 4312.32 1353.57C4306.58 1359.32 4299.2 1362.19 4290.18 1362.19H4078.63V1962.7C4078.63 1971.72 4075.35 1979.52 4068.79 1986.08C4063.05 1991.82 4055.67 1994.69 4046.65 1994.69H3842.48Z" fill="#85118D"/>
<path d="M4769.06 2007C4690.34 2007 4621.87 1994.69 4563.65 1970.08C4506.26 1945.47 4460.75 1908.56 4427.13 1859.33C4394.33 1809.29 4376.7 1747.35 4374.24 1673.52C4373.42 1639.06 4373.01 1603.79 4373.01 1567.69C4373.01 1530.77 4373.42 1494.27 4374.24 1458.17C4376.7 1385.16 4394.33 1323.63 4427.13 1273.59C4460.75 1223.55 4506.67 1185.81 4564.88 1160.38C4623.1 1134.13 4691.16 1121 4769.06 1121C4846.13 1121 4913.78 1134.13 4972 1160.38C5030.22 1185.81 5076.13 1223.55 5109.75 1273.59C5143.37 1323.63 5161 1385.16 5162.64 1458.17C5164.28 1494.27 5165.1 1530.77 5165.1 1567.69C5165.1 1603.79 5164.28 1639.06 5162.64 1673.52C5160.18 1747.35 5142.14 1809.29 5108.52 1859.33C5075.72 1908.56 5030.22 1945.47 4972 1970.08C4914.6 1994.69 4846.95 2007 4769.06 2007ZM4769.06 1797.81C4803.5 1797.81 4831.78 1787.55 4853.92 1767.04C4876.06 1745.71 4887.54 1712.08 4888.36 1666.14C4890 1630.86 4890.82 1596.81 4890.82 1564C4890.82 1530.36 4890 1496.32 4888.36 1461.86C4887.54 1431.51 4881.8 1406.49 4871.14 1386.8C4861.3 1367.11 4847.36 1352.75 4829.32 1343.73C4812.11 1334.71 4792.02 1330.19 4769.06 1330.19C4746.1 1330.19 4725.6 1334.71 4707.56 1343.73C4689.52 1352.75 4675.17 1367.11 4664.51 1386.8C4654.67 1406.49 4649.34 1431.51 4648.52 1461.86C4647.7 1496.32 4647.29 1530.36 4647.29 1564C4647.29 1596.81 4647.7 1630.86 4648.52 1666.14C4650.16 1712.08 4661.64 1745.71 4682.96 1767.04C4705.1 1787.55 4733.8 1797.81 4769.06 1797.81Z" fill="#85118D"/>
<path d="M5298.63 1994.69C5290.43 1994.69 5283.05 1991.82 5276.49 1986.08C5269.93 1979.52 5266.65 1971.72 5266.65 1962.7V1165.3C5266.65 1156.28 5269.93 1148.89 5276.49 1143.15C5283.05 1136.59 5290.43 1133.31 5298.63 1133.31H5657.77C5729.11 1133.31 5791.02 1143.97 5843.5 1165.3C5896.79 1186.63 5938.2 1219.03 5967.72 1262.51C5997.24 1305.99 6012 1360.55 6012 1426.18C6012 1491.81 5997.24 1545.95 5967.72 1588.61C5938.2 1630.45 5896.79 1661.21 5843.5 1680.9C5791.02 1700.59 5729.11 1710.44 5657.77 1710.44H5540.93V1962.7C5540.93 1971.72 5537.65 1979.52 5531.09 1986.08C5525.35 1991.82 5517.97 1994.69 5508.95 1994.69H5298.63ZM5536.01 1512.32H5651.62C5675.4 1512.32 5695.49 1505.34 5711.89 1491.4C5729.11 1476.63 5737.72 1454.07 5737.72 1423.72C5737.72 1400.75 5731.16 1379.83 5718.04 1360.96C5704.92 1342.09 5682.78 1332.66 5651.62 1332.66H5536.01V1512.32Z" fill="#85118D"/>
</g>
<defs>
<clipPath id="clip0_317_19">
<rect width="6014" height="2007" fill="white"/>
</clipPath>
</defs>
</svg>
