<svg width="208" height="161" viewBox="0 0 208 161" fill="none" xmlns="http://www.w3.org/2000/svg">
<path d="M167.909 84.4941H69.4272C67.1186 84.4941 65.2041 82.5814 65.2041 80.275V33.4151C65.2041 31.1087 67.1186 29.196 69.4272 29.196H167.853C170.161 29.196 172.076 31.1087 172.076 33.4151V80.3313C172.132 82.5814 170.218 84.4941 167.909 84.4941Z" fill="#00B25A"/>
<path d="M155.634 36.7341C155.634 36.6216 155.634 36.5091 155.634 36.3965H81.5896C81.5896 36.5091 81.6459 36.6216 81.6459 36.7341C81.6459 40.8406 78.2674 44.2159 74.157 44.2159V69.7554C78.2674 69.7554 81.6459 73.1306 81.6459 77.2372H155.69C155.69 73.1306 159.069 69.7554 163.179 69.7554V44.2159C159.012 44.2159 155.634 40.8969 155.634 36.7341ZM91.2182 60.9234C88.9659 60.9234 87.1077 59.067 87.1077 56.8169C87.1077 54.5667 88.9659 52.7103 91.2182 52.7103C93.4705 52.7103 95.3286 54.5667 95.3286 56.8169C95.2723 59.067 93.4705 60.9234 91.2182 60.9234ZM118.584 72.3431C110.644 72.3431 104.225 65.7613 104.225 57.7169C104.225 49.6726 110.644 43.0908 118.584 43.0908C126.523 43.0908 132.942 49.6726 132.942 57.7169C132.942 65.7613 126.523 72.3431 118.584 72.3431ZM146.005 60.9234C143.753 60.9234 141.895 59.067 141.895 56.8169C141.895 54.5667 143.753 52.7103 146.005 52.7103C148.258 52.7103 150.116 54.5667 150.116 56.8169C150.06 59.067 148.258 60.9234 146.005 60.9234Z" fill="#64DD5E"/>
<path d="M124.609 58.8421C124.214 58.2796 123.708 57.7733 122.976 57.3233C122.244 56.8732 121.343 56.5357 120.16 56.2544C119.203 56.0294 118.415 55.8044 117.908 55.6356C117.345 55.4669 116.894 55.2419 116.613 54.9606C116.331 54.6793 116.106 54.3418 116.106 53.8917C116.106 53.4417 116.331 53.0479 116.782 52.7104C117.232 52.3729 117.795 52.2604 118.415 52.2604C119.034 52.2604 119.597 52.3729 119.991 52.5979C120.385 52.8229 120.723 53.1604 121.005 53.5542C121.343 54.0043 121.624 54.398 121.906 54.623C122.187 54.8481 122.525 54.9606 122.863 54.9606C123.37 54.9606 123.764 54.7918 124.045 54.5105C124.327 54.173 124.496 53.8355 124.496 53.3855C124.496 52.9354 124.327 52.5416 124.102 52.0916C123.82 51.6416 123.426 51.2478 122.919 50.9103C122.413 50.5727 121.793 50.2352 121.005 50.0102C120.949 50.0102 120.892 49.9539 120.836 49.9539V48.6038C120.836 47.535 119.935 46.5787 118.865 46.5787C117.795 46.5787 116.894 47.4787 116.894 48.6038V49.8414C116.331 49.9539 115.825 50.1227 115.318 50.3477C114.473 50.7977 113.798 51.3603 113.347 52.0916C112.897 52.8229 112.671 53.5542 112.671 54.398C112.671 55.2981 112.897 56.0294 113.403 56.7045C113.854 57.3233 114.473 57.8295 115.318 58.2233C116.106 58.6171 117.176 58.9546 118.415 59.2922C119.541 59.5734 120.385 59.911 120.836 60.1922C121.343 60.5298 121.568 61.036 121.568 61.7674C121.568 62.2174 121.343 62.6674 120.836 63.0049C120.385 63.3425 119.766 63.5112 119.034 63.5112C118.133 63.5112 117.401 63.3425 116.894 63.0049C116.388 62.6674 115.881 62.1049 115.543 61.3736C115.374 60.9798 115.149 60.6985 114.924 60.4735C114.698 60.2485 114.417 60.136 114.023 60.136C113.572 60.136 113.234 60.3047 112.953 60.586C112.671 60.9235 112.502 61.3173 112.502 61.7111C112.502 62.3862 112.728 63.0612 113.178 63.7363C113.629 64.4113 114.361 64.9739 115.262 65.3676C115.712 65.5927 116.275 65.7614 116.838 65.8739V67.1678C116.838 68.2366 117.739 69.1929 118.809 69.1929C119.879 69.1929 120.78 68.2929 120.78 67.1678V65.8739C121.286 65.7614 121.793 65.6489 122.131 65.4239C123.088 64.9739 123.82 64.4113 124.327 63.6237C124.834 62.8362 125.059 61.8799 125.059 60.7548C125.172 60.0797 124.946 59.4609 124.609 58.8421Z" fill="#64DD5E"/>
<path d="M26.3521 3.31903H44.7646C46.3412 3.31903 47.6926 4.61288 47.6926 6.24426V49.7289C47.6926 51.304 46.3976 52.6541 44.7646 52.6541H26.3521C24.7755 52.6541 23.4241 51.3603 23.4241 49.7289V6.24426C23.4241 4.61288 24.7191 3.31903 26.3521 3.31903Z" fill="#592472"/>
<path d="M0 55.9168H23.0861C25.0569 55.9168 26.6898 54.2855 26.6898 52.3166V3.60028C26.6898 1.63138 25.0569 0 23.0861 0H0V55.9168Z" fill="url(#paint0_linear_40_176)"/>
<path d="M86.8262 36.1153V36.3966L86.8825 37.803C86.9951 41.1782 89.8668 43.8222 93.2452 43.7097L115.993 43.3721H117.12C120.667 43.2596 123.595 45.5661 123.482 48.9976L123.426 51.1915C123.426 51.2478 123.426 51.304 123.426 51.3603C123.37 52.6541 122.863 53.8917 122.075 54.848C121.568 55.4668 120.949 55.9731 120.217 56.3669C119.316 56.8732 118.358 57.0982 117.232 57.0982H96.2295C95.8917 57.0982 95.5538 57.1545 95.2723 57.1545C94.1461 57.3232 93.0763 57.8295 92.2317 58.5608L88.7969 60.2485L88.4028 60.4735C83.8419 62.7236 78.9994 63.8487 74.1007 63.8487C71.06 63.8487 68.0757 63.455 65.1478 62.6111C59.8548 61.0923 54.8998 58.2796 50.9019 54.2292L45.5527 48.8851C44.3703 47.7037 43.6946 46.0724 43.6946 44.3847V10.5196C43.6946 7.76314 45.8906 5.56921 48.6496 5.56921H116.106C117.401 5.56921 118.696 6.01925 119.71 6.75055L150.735 29.3086H123.482C122.807 29.0835 122.075 28.971 121.399 28.971L112.39 29.3086L92.7385 29.8711C89.4163 29.9836 86.7699 32.7401 86.8262 36.1153Z" fill="#FFD7B3"/>
<path d="M34.9671 48.0975C37.5793 48.0975 39.697 45.9818 39.697 43.3721C39.697 40.7623 37.5793 38.6467 34.9671 38.6467C32.3549 38.6467 30.2373 40.7623 30.2373 43.3721C30.2373 45.9818 32.3549 48.0975 34.9671 48.0975Z" fill="#F4641E"/>
<path d="M165.769 150.649C165.769 153.406 163.573 155.6 160.814 155.6H93.3577C92.0626 155.6 90.7676 155.15 89.754 154.418L44.9332 121.791C41.8926 119.541 41.6111 115.209 44.3138 112.565L44.7643 112.115C46.7914 110.202 49.8883 109.865 52.2532 111.327L84.5737 131.185C85.5873 131.804 86.826 132.142 88.0648 132.142L116.725 131.129C120.048 131.016 122.694 128.26 122.694 124.885L122.638 123.197C122.525 119.822 119.653 117.178 116.275 117.29L92.4005 117.684C88.8531 117.797 85.9251 115.49 86.0377 112.059L86.094 109.865C86.2067 106.546 88.9094 103.958 92.2316 103.958H113.234C114.698 103.958 116.162 103.452 117.232 102.496L121.117 100.639C133.618 94.3949 148.821 97.0388 158.618 106.883L163.967 112.228C165.15 113.409 165.826 115.04 165.826 116.728V150.649H165.769Z" fill="#FFD7B3"/>
<path d="M183.112 157.681H164.699C163.123 157.681 161.771 156.387 161.771 154.756V111.271C161.771 109.696 163.067 108.346 164.699 108.346H183.112C184.689 108.346 186.04 109.64 186.04 111.271V154.756C186.04 156.387 184.801 157.681 183.112 157.681Z" fill="#F4641E"/>
<path d="M208 105.083H184.914C182.943 105.083 181.31 106.715 181.31 108.683V157.4C181.31 159.369 182.943 161 184.914 161H208V105.083Z" fill="url(#paint1_linear_40_176)"/>
<path d="M171.794 123.366C174.406 123.366 176.524 121.25 176.524 118.64C176.524 116.031 174.406 113.915 171.794 113.915C169.182 113.915 167.064 116.031 167.064 118.64C167.064 121.25 169.182 123.366 171.794 123.366Z" fill="#592472"/>
<defs>
<linearGradient id="paint0_linear_40_176" x1="22.4819" y1="48.7622" x2="-9.97282" y2="32.0924" gradientUnits="userSpaceOnUse">
<stop stop-color="#F4641E"/>
<stop offset="1" stop-color="#FFA235"/>
</linearGradient>
<linearGradient id="paint1_linear_40_176" x1="202.705" y1="103.107" x2="165.415" y2="143.521" gradientUnits="userSpaceOnUse">
<stop stop-color="#85118D"/>
<stop offset="1" stop-color="#E8319F"/>
</linearGradient>
</defs>
</svg>
