<svg width="250" height="161" viewBox="0 0 250 161" fill="none" xmlns="http://www.w3.org/2000/svg">
<path d="M148.032 38.2594C148.032 38.2594 145.871 40.4932 149.883 57.4062C153.896 74.3192 163 87.2433 163 87.2433C163 87.2433 174.729 77.0317 171.179 59.4804C167.784 41.9292 148.032 38.2594 148.032 38.2594Z" fill="#FFC967"/>
<path d="M150.347 88.041C150.347 88.041 147.261 88.9984 140.008 96.8166C132.755 104.635 122.107 108.624 109.453 114.527C96.7985 120.431 90.6258 92.9873 93.8665 79.1058C96.9529 65.2244 110.842 55.651 110.842 55.651L137.847 59.4804C137.847 59.4804 146.798 48.471 150.347 55.651C153.742 62.8311 153.434 78.9463 150.347 88.041Z" fill="#FFD7B3"/>
<path d="M127.199 138.94L35.2248 160.799C31.2125 161.756 27.2002 159.203 26.2743 155.055L0.194372 38.2595C-0.731541 34.111 1.73752 29.9625 5.74981 29.0052L97.7239 7.14591C101.736 6.18857 105.748 8.74149 106.674 12.89L132.6 129.685C133.68 133.834 131.211 137.982 127.199 138.94Z" fill="url(#paint0_linear_40_249)"/>
<path d="M88.4648 40.6527L28.5891 54.8533C26.5829 55.332 24.731 54.0555 24.2681 51.9812C23.8051 49.907 25.0397 47.9923 27.0459 47.5137L86.9216 33.3131C88.9277 32.8345 90.7795 34.1109 91.2425 36.1851C91.5511 38.0998 90.3166 40.1741 88.4648 40.6527Z" fill="#592472"/>
<path d="M28.4346 71.2877L95.409 55.332" stroke="white" stroke-width="1.8" stroke-miterlimit="10" stroke-linecap="round" stroke-linejoin="round"/>
<path d="M31.0581 82.9352L98.0325 66.9795" stroke="white" stroke-width="1.8" stroke-miterlimit="10" stroke-linecap="round" stroke-linejoin="round"/>
<path d="M71.0274 128.888L46.3364 134.791C44.3303 135.27 42.4784 133.993 42.0154 131.919L36.3057 106.39C35.8427 104.316 37.0773 102.401 39.0834 101.923L63.7744 96.0189C65.7806 95.5403 67.6324 96.8168 68.0953 98.891L73.8051 124.42C74.1138 126.335 72.8792 128.409 71.0274 128.888Z" fill="#592472"/>
<path d="M77.1992 92.6681L102.353 86.605" stroke="white" stroke-width="1.8" stroke-miterlimit="10" stroke-linecap="round" stroke-linejoin="round"/>
<path d="M79.9771 105.273L105.285 99.3698" stroke="white" stroke-width="1.8" stroke-miterlimit="10" stroke-linecap="round" stroke-linejoin="round"/>
<path d="M82.7544 118.038L98.032 114.368" stroke="white" stroke-width="1.8" stroke-miterlimit="10" stroke-linecap="round" stroke-linejoin="round"/>
<path d="M69.0199 17.6768L36.3044 25.495C33.9896 25.9737 31.9834 23.8995 32.4464 21.5061L32.755 19.9106C33.0636 18.6341 33.9896 17.6768 35.2241 17.3576L66.5508 9.85846C67.7854 9.53935 69.0199 10.018 69.7915 10.9754L70.7174 12.2518C72.2606 14.326 71.3347 17.1981 69.0199 17.6768Z" fill="#F4641E"/>
<path d="M140.007 49.7477C140.007 49.7477 136.149 51.8219 128.742 49.7477C121.334 47.6734 120.1 45.7588 112.384 43.6845C104.668 41.6103 94.02 43.8441 92.1682 47.1947C90.3164 50.5454 95.2546 52.6197 101.89 53.4175C108.526 54.2153 111.612 67.2989 122.26 72.2452C140.007 80.3826 155.748 55.4917 140.007 49.7477Z" fill="#FFD7B3"/>
<path d="M92.1682 47.1947C90.3164 50.5454 95.2546 52.6197 101.89 53.4175C108.526 54.2152 111.612 67.2989 122.26 72.2451C125.964 74.0002 129.513 74.1598 132.754 73.5216" stroke="#F1BC8B" stroke-width="1.8" stroke-miterlimit="10" stroke-linecap="round" stroke-linejoin="round"/>
<path d="M151.736 42.4077C151.736 42.4077 143.557 47.8327 140.007 49.7473C140.007 49.7473 146.952 56.7679 149.729 69.3728C152.507 81.9778 150.347 88.0409 150.347 88.0409C150.347 88.0409 159.451 87.0836 163.927 83.7329C163.927 83.7329 168.248 76.3933 164.698 62.0332C161.149 47.6731 151.736 42.4077 151.736 42.4077Z" fill="#592472"/>
<path d="M248.648 22.9421C242.475 1.88058 218.401 -6.7355 200.963 5.86948C190.778 13.2091 180.13 20.3891 171.642 25.1758C148.032 38.419 148.032 38.419 148.032 38.419C148.032 38.419 161.457 52.1409 163.464 67.2988C165.47 82.4567 163.001 87.4029 163.001 87.4029C163.001 87.4029 199.883 77.9891 232.444 61.5547C246.179 54.3747 253.123 38.0999 248.648 22.9421Z" fill="url(#paint1_linear_40_249)"/>
<path d="M159.915 75.7554C159.915 74.6385 159.143 73.8407 158.063 73.8407C156.983 73.8407 156.211 74.6385 156.211 75.7554C156.211 76.8723 156.983 77.67 158.063 77.67C159.143 77.67 159.915 76.8723 159.915 75.7554Z" fill="#FFC967"/>
<defs>
<linearGradient id="paint0_linear_40_249" x1="106.5" y1="1.5" x2="23" y2="165" gradientUnits="userSpaceOnUse">
<stop stop-color="#85118D"/>
<stop offset="1" stop-color="#E8319F"/>
</linearGradient>
<linearGradient id="paint1_linear_40_249" x1="233.924" y1="76.2197" x2="173.093" y2="-0.148665" gradientUnits="userSpaceOnUse">
<stop stop-color="#F4641E"/>
<stop offset="1" stop-color="#FFA235"/>
</linearGradient>
</defs>
</svg>
