<svg width="153" height="150" viewBox="0 0 153 150" fill="none" xmlns="http://www.w3.org/2000/svg">
<path d="M44.0001 76.1924C43.7169 76.1558 43.429 76.1827 43.1574 76.271C42.8857 76.3592 42.6371 76.5068 42.4294 76.7029C34.4976 83.6465 24.6124 87.9671 14.1288 89.0724C18.0722 83.8139 21.0298 77.8841 22.8581 71.5705C22.9834 71.1404 22.9578 70.6805 22.7857 70.2669C22.6136 69.8533 22.3052 69.5111 21.9117 69.2969C8.78042 62.1422 0.926758 50.7505 0.926758 38.8365C0.926758 17.934 24.0322 0.92688 52.431 0.92688C80.8299 0.92688 103.939 17.934 103.939 38.8365C103.846 43.2173 102.848 47.5314 101.007 51.5077C99.1661 55.4841 96.5226 59.0366 93.2426 61.9419C93.1566 62.0409 93.0815 62.1488 93.0188 62.264C81.0093 63.6349 69.6715 68.5197 60.4261 76.3063C60.3973 76.3082 60.3684 76.3082 60.3397 76.3063C54.9091 76.9385 49.4214 76.9003 44.0001 76.1924Z" fill="url(#paint0_linear_40_314)"/>
<path d="M110.522 136.796C110.158 136.457 109.679 136.269 109.183 136.269C109.103 136.264 109.023 136.264 108.943 136.269C106.144 136.626 103.326 136.812 100.504 136.827C72.1015 136.827 49 119.82 49 98.9096C49 77.9992 72.1015 61 100.504 61C128.907 61 152.009 78.0228 152.009 98.9096C152.009 110.835 144.155 122.219 131.039 129.37C130.646 129.584 130.337 129.926 130.165 130.34C129.993 130.754 129.968 131.214 130.093 131.644C131.917 137.967 134.875 143.907 138.822 149.173C128.337 148.067 118.452 143.743 110.522 136.796Z" fill="url(#paint1_linear_40_314)"/>
<path d="M90.9713 99.9425C92.06 99.9425 92.9425 99.06 92.9425 97.9713C92.9425 96.8826 92.06 96 90.9713 96C89.8826 96 89 96.8826 89 97.9713C89 99.06 89.8826 99.9425 90.9713 99.9425Z" fill="#FFAF4E"/>
<path d="M100.949 99.9425C102.038 99.9425 102.921 99.06 102.921 97.9713C102.921 96.8826 102.038 96 100.949 96C99.8606 96 98.978 96.8826 98.978 97.9713C98.978 99.06 99.8606 99.9425 100.949 99.9425Z" fill="#FFAF4E"/>
<path d="M110.743 99.9425C111.831 99.9425 112.714 99.06 112.714 97.9713C112.714 96.8826 111.831 96 110.743 96C109.654 96 108.771 96.8826 108.771 97.9713C108.771 99.06 109.654 99.9425 110.743 99.9425Z" fill="#FFAF4E"/>
<path d="M42.5511 36.8691C42.1627 36.8691 41.7831 36.9843 41.4602 37.2C41.1374 37.4158 40.8857 37.7224 40.7371 38.0812C40.5885 38.44 40.5496 38.8347 40.6254 39.2156C40.7011 39.5965 40.8881 39.9463 41.1627 40.2209C41.4373 40.4955 41.7872 40.6825 42.168 40.7582C42.5489 40.834 42.9437 40.7951 43.3024 40.6465C43.6612 40.4979 43.9678 40.2463 44.1836 39.9234C44.3993 39.6005 44.5145 39.2209 44.5145 38.8326C44.5145 38.3118 44.3076 37.8124 43.9394 37.4442C43.5712 37.076 43.0718 36.8691 42.5511 36.8691Z" fill="#85118D"/>
<path d="M52.5294 40.8078C53.6181 40.8078 54.5006 39.9252 54.5006 38.8365C54.5006 37.7478 53.6181 36.8652 52.5294 36.8652C51.4407 36.8652 50.5581 37.7478 50.5581 38.8365C50.5581 39.9252 51.4407 40.8078 52.5294 40.8078Z" fill="#85118D"/>
<path d="M62.3186 40.8078C62.707 40.8078 63.0866 40.6927 63.4095 40.4769C63.7323 40.2612 63.984 39.9545 64.1326 39.5958C64.2812 39.237 64.3201 38.8422 64.2443 38.4614C64.1686 38.0805 63.9816 37.7306 63.707 37.4561C63.4324 37.1815 63.0825 36.9945 62.7017 36.9187C62.3208 36.843 61.926 36.8818 61.5673 37.0304C61.2085 37.179 60.9019 37.4307 60.6861 37.7536C60.4704 38.0765 60.3552 38.4561 60.3552 38.8444C60.3552 39.3651 60.5621 39.8645 60.9303 40.2327C61.2985 40.601 61.7979 40.8078 62.3186 40.8078Z" fill="#85118D"/>
<defs>
<linearGradient id="paint0_linear_40_314" x1="87.6986" y1="77.7941" x2="26.3749" y2="0.673675" gradientUnits="userSpaceOnUse">
<stop stop-color="#F4641E"/>
<stop offset="1" stop-color="#FFA235"/>
</linearGradient>
<linearGradient id="paint1_linear_40_314" x1="131.575" y1="57.8836" x2="92.6303" y2="161.188" gradientUnits="userSpaceOnUse">
<stop stop-color="#85118D"/>
<stop offset="1" stop-color="#E8319F"/>
</linearGradient>
</defs>
</svg>
