<svg width="32" height="32" viewBox="0 0 32 32" fill="none" xmlns="http://www.w3.org/2000/svg">
<path d="M31 25.495C31 26.035 30.8798 26.59 30.6244 27.13C30.3691 27.67 30.0386 28.18 29.6029 28.66C28.8668 29.47 28.0556 30.055 27.1392 30.43C26.2379 30.805 25.2614 31 24.2098 31C22.6775 31 21.0401 30.64 19.3125 29.905C17.5849 29.17 15.8573 28.18 14.1447 26.935C12.4171 25.675 10.7797 24.28 9.21733 22.735C7.67 21.175 6.27291 19.54 5.02604 17.83C3.79419 16.12 2.8027 14.41 2.08162 12.715C1.36054 11.005 1 9.37 1 7.81C1 6.79 1.18027 5.815 1.54081 4.915C1.90135 4 2.47221 3.16 3.2684 2.41C4.22984 1.465 5.28142 1 6.39309 1C6.81372 1 7.23435 1.09 7.60992 1.27C8.0005 1.45 8.34602 1.72 8.61643 2.11L12.1017 7.015C12.3721 7.39 12.5674 7.735 12.7026 8.065C12.8378 8.38 12.9129 8.695 12.9129 8.98C12.9129 9.34 12.8077 9.7 12.5974 10.045C12.4021 10.39 12.1167 10.75 11.7561 11.11L10.6144 12.295C10.4492 12.46 10.3741 12.655 10.3741 12.895C10.3741 13.015 10.3891 13.12 10.4191 13.24C10.4642 13.36 10.5093 13.45 10.5393 13.54C10.8097 14.035 11.2754 14.68 11.9364 15.46C12.6124 16.24 13.3335 17.035 14.1147 17.83C14.9259 18.625 15.7071 19.36 16.5033 20.035C17.2844 20.695 17.9304 21.145 18.4412 21.415C18.5163 21.445 18.6064 21.49 18.7116 21.535C18.8317 21.58 18.9519 21.595 19.0871 21.595C19.3425 21.595 19.5378 21.505 19.7031 21.34L20.8448 20.215C21.2203 19.84 21.5809 19.555 21.9264 19.375C22.2719 19.165 22.6174 19.06 22.993 19.06C23.2784 19.06 23.5789 19.12 23.9094 19.255C24.2399 19.39 24.5854 19.585 24.9609 19.84L29.9334 23.365C30.324 23.635 30.5944 23.95 30.7596 24.325C30.9099 24.7 31 25.075 31 25.495Z" stroke="#F4641E" stroke-width="2" stroke-miterlimit="10"/>
</svg>
